<svg width="211" height="50" viewBox="0 0 211 50" fill="none" xmlns="http://www.w3.org/2000/svg">
<path fill-rule="evenodd" clip-rule="evenodd" d="M93.3897 9.84676C85.5519 2.04114 72.8759 2.05109 65.0504 9.87661L33.3579 41.4292C41.9545 48.9543 54.979 48.6495 63.0795 40.5491L93.5728 10.056L93.3897 9.84676ZM15.3908 23.3956L1.00098 9.13329C8.88131 2.19716 20.8971 2.49292 28.4247 10.0206L28.6585 10.2543L15.3908 23.3956ZM32.4069 10.0206C40.2424 2.18507 52.9406 2.18507 60.7761 10.0206L61.0143 10.2587L31.6371 39.6358L17.2142 25.213L32.4069 10.0206Z" fill="#FF6243"/>
<path d="M108.822 39.3233L101.571 11.644H107.556L112.966 32.5998L119.162 11.644H124.015L130.172 32.5998L135.639 11.644H141.605L134.354 39.3233H126.95L121.579 22.2177L116.227 39.3233H108.822Z" fill="#0E0E0F"/>
<path d="M155.883 19.2486C158.121 19.2486 159.854 19.8744 161.081 21.1258C162.322 22.3645 162.942 24.197 162.942 26.6234V39.3233H157.398V27.5237C157.398 26.17 157.072 25.1931 156.42 24.5929C155.768 23.98 154.898 23.6735 153.811 23.6735C153.261 23.6735 152.743 23.7501 152.258 23.9033C151.784 24.0566 151.33 24.3056 150.896 24.6504C150.461 24.9824 150.115 25.4741 149.86 26.1253C149.617 26.7766 149.489 27.5556 149.476 28.4623V39.3233H143.952V9.90088H149.476V21.9878C150.972 20.1617 153.108 19.2486 155.883 19.2486Z" fill="#0E0E0F"/>
<path d="M176.088 39.7064C173.991 39.7064 172.13 39.3041 170.506 38.4996C168.882 37.6951 167.603 36.5138 166.67 34.9559C165.749 33.3979 165.289 31.5654 165.289 29.4583C165.289 26.3041 166.286 23.8139 168.281 21.9878C170.276 20.1617 172.878 19.2486 176.088 19.2486C179.311 19.2486 181.92 20.1617 183.915 21.9878C185.91 23.8139 186.907 26.3041 186.907 29.4583C186.907 32.6253 185.91 35.1283 183.915 36.9672C181.92 38.7933 179.311 39.7064 176.088 39.7064ZM176.031 35.3198C177.642 35.3198 178.94 34.7835 179.925 33.7108C180.922 32.6381 181.421 31.2206 181.421 29.4583C181.421 27.6961 180.922 26.2786 179.925 25.2059C178.94 24.1332 177.642 23.5969 176.031 23.5969C174.483 23.5969 173.217 24.1396 172.233 25.225C171.261 26.2977 170.775 27.7088 170.775 29.4583C170.775 31.2079 171.261 32.6253 172.233 33.7108C173.217 34.7835 174.483 35.3198 176.031 35.3198Z" fill="#0E0E0F"/>
<path d="M200.634 19.2486C201.939 19.2486 203.166 19.4849 204.317 19.9574C205.468 20.4299 206.472 21.0939 207.329 21.9495C208.198 22.8051 208.883 23.8906 209.381 25.2059C209.88 26.5084 210.13 27.9451 210.13 29.5158C210.13 31.0865 209.88 32.5296 209.381 33.8449C208.883 35.1474 208.198 36.2265 207.329 37.0821C206.472 37.9377 205.468 38.6018 204.317 39.0743C203.166 39.5468 201.939 39.783 200.634 39.783C199.33 39.783 198.14 39.5404 197.066 39.0551C195.992 38.5698 195.167 37.8802 194.592 36.9863V48.9009H189.067V19.6317H194.304L194.457 22.2751C194.995 21.3174 195.813 20.5767 196.913 20.0531C198.025 19.5168 199.266 19.2486 200.634 19.2486ZM199.387 35.2049C200.884 35.2049 202.124 34.6941 203.109 33.6725C204.106 32.6381 204.605 31.2525 204.605 29.5158C204.605 27.7791 204.106 26.3999 203.109 25.3783C202.124 24.3439 200.884 23.8267 199.387 23.8267C197.878 23.8267 196.625 24.3503 195.628 25.3974C194.63 26.4446 194.131 27.8174 194.131 29.5158C194.131 31.2142 194.63 32.587 195.628 33.6342C196.625 34.6813 197.878 35.2049 199.387 35.2049Z" fill="#0E0E0F"/>
</svg>
